<svg xmlns="http://www.w3.org/2000/svg" xmlns:xlink="http://www.w3.org/1999/xlink" width="300" zoomAndPan="magnify" viewBox="0 0 224.87999 225" height="300" preserveAspectRatio="xMidYMid meet" version="1.0"><path fill="#000000" d="M 219.429688 103.789062 L 145.78125 31.273438 C 136.183594 23.09375 130.992188 26.34375 125.539062 31.789062 C 120.082031 37.238281 124.882812 46.972656 130.769531 51.953125 L 171.148438 92.820312 C 171.148438 92.820312 174.640625 96.304688 168.210938 96.304688 L 14.523438 96.304688 C 6.804688 96.304688 0 102.550781 0 110.25 C 0 117.953125 6.804688 124.195312 14.523438 124.195312 L 168.210938 124.195312 C 174.640625 124.195312 171.148438 127.683594 171.148438 127.683594 L 130.769531 168.554688 C 124.882812 173.53125 120.082031 183.269531 125.539062 188.714844 C 130.992188 194.160156 136.183594 197.410156 145.78125 189.230469 L 219.429688 116.714844 C 224.835938 111.21875 224.835938 109.285156 219.429688 103.789062 Z M 219.429688 103.789062 " fill-opacity="1" fill-rule="nonzero"/><path stroke-linecap="butt" transform="matrix(0.7496, 0, 0, 0.7496, 76.459193, 111.000805)" fill="none" stroke-linejoin="miter" d="M 0.00232669 1.999993 L 96.001451 1.999993 " stroke="#000000" stroke-width="4" stroke-opacity="1" stroke-miterlimit="4"/></svg>